<mxfile host="app.diagrams.net" modified="2023-05-02T10:52:02.003Z" agent="Mozilla/5.0 (Windows NT 10.0; Win64; x64) AppleWebKit/537.36 (KHTML, like Gecko) Chrome/112.0.0.0 Safari/537.36 Edg/112.0.1722.39" version="21.2.4" etag="w-CtfLAVcm3Qkr5q_Whq" type="github">
  <diagram name="ページ1" id="JZ3VL-I7R1nZ2yDoJDg8">
    <mxGraphModel>
      <root>
        <mxCell id="0" />
        <mxCell id="1" parent="0" />
      </root>
    </mxGraphModel>
  </diagram>
</mxfile>
